<svg version="1.1" id="Capa_1" xmlns="http://www.w3.org/2000/svg" x="0" y="0" viewBox="0 0 80.6 88" style="enable-background:new 0 0 80.6 88" xml:space="preserve"><path d="M79.3 24.1V45c0 1-.4 2-1.2 2.7L63.4 60.8c-.5.5-1.2.7-1.9.7H19c-.7 0-1.3-.3-1.9-.7L2.5 47.6c-.8-.7-1.2-1.7-1.2-2.7V24.1c6.2-13.9 20-22.8 35.2-22.8h7.6c15.2 0 28.9 8.9 35.2 22.8z" style="fill:#DD636E"/><path d="M79.3 24.1C73 10.2 59.3 1.3 44.1 1.3h-5c15.2 0 29 8.9 35.2 22.8V45c0 1-.4 2-1.2 2.7L58.4 60.8c-.5.5-1.2.7-1.9.7h5c.7 0 1.3-.3 1.9-.7l14.7-13.2c.8-.7 1.2-1.7 1.2-2.7V24.1z" style="fill:#DA4A54"/><path d="M53.4 47.1H27.2V30.6c0-1.1.9-2 2-2h22.1c1.1 0 2 .9 2 2l.1 16.5z" style="fill:#F9F6F9"/><path d="M51.3 28.5H48c1.1 0 2 .9 2 2V47h3.3V30.6c.1-1.1-.8-2.1-2-2.1z" style="fill:#E2DFE2"/><path d="M59.8 47.1h-39c-1.7 0-3 1.3-3 3s1.3 3 3 3h39c1.7 0 3-1.3 3-3 0-1.6-1.3-3-3-3z" style="fill:#544F57"/><path d="M59.8 47.1h-3.6c1.7 0 3 1.3 3 3s-1.3 3-3 3h3.6c1.7 0 3-1.3 3-3 0-1.6-1.3-3-3-3z" style="fill:#454045"/><path d="M9 42.7c-.7 0-1.3.6-1.3 1.3s.6 1.3 1.3 1.3h2.1c.7 0 1.3-.6 1.3-1.3s-.6-1.3-1.3-1.3H9zM72.8 44c0-.7-.6-1.3-1.3-1.3h-2.1c-.7 0-1.3.6-1.3 1.3s.6 1.3 1.3 1.3h2.1c.8 0 1.3-.6 1.3-1.3zM46.6 10.1c.7 0 1.3-.6 1.3-1.3 0-.7-.6-1.3-1.3-1.3H33.9c-.7 0-1.3.6-1.3 1.3 0 .7.6 1.3 1.3 1.3h12.7z"/><path d="M80.5 23.5C74 9.2 59.7 0 44.1 0h-7.6c-7.2 0-14.2 1.9-20.4 5.6-.6.4-.8 1.2-.4 1.8.3.6 1.1.8 1.7.4 5.8-3.4 12.4-5.3 19.1-5.3h7.6C58.7 2.5 71.9 11 78 24.3v20.6c0 .7-.3 1.3-.8 1.7l-6.4 5.7c-.5.5-.6 1.3-.1 1.8.3.3.6.4 1 .4.3 0 .6-.1.9-.3l6.4-5.7c1-.9 1.6-2.3 1.6-3.7V24.1c0-.2-.1-.4-.1-.6z"/><path d="M67 55.8l-4.5 4c-.3.2-.6.4-1 .4h-8.3c1.2-2.1 2.6-4.1 4.4-5.8h2.2c2.4 0 4.3-1.9 4.3-4.3s-1.9-4.3-4.3-4.3h-5.1v-5.4c0-.7-.6-1.3-1.3-1.3s-1.3.6-1.3 1.3v5.4H28.5V30.6c0-.4.3-.7.7-.7h22.1c.4 0 .7.3.7.7v4.7c0 .7.6 1.3 1.3 1.3s1.3-.6 1.3-1.3v-4.7c0-1.8-1.5-3.3-3.3-3.3H29.2c-1.8 0-3.3 1.5-3.3 3.3v15.2h-5.1c-2.4 0-4.3 1.9-4.3 4.3s1.9 4.3 4.3 4.3H23c1.8 1.7 3.2 3.7 4.4 5.8H19c-.4 0-.7-.1-1-.4L3.4 46.7c-.5-.4-.8-1.1-.8-1.7V24.3C5 19 8.7 14.3 13.2 10.7c.6-.4.6-1.3.2-1.8-.4-.6-1.3-.6-1.8-.2C6.7 12.6 2.7 17.8.1 23.5c-.1.2-.1.4-.1.6V45c0 1.4.6 2.7 1.6 3.7l14.7 13.2c.7.7 1.7 1 2.7 1h9.5c.9 2.1 1.5 4.2 1.9 6.4h-1.1c-.7 0-1.3.6-1.3 1.3s.6 1.3 1.3 1.3h1.5c.3 2.3.4 4.9.3 7.6H30c-.7 0-1.3.6-1.3 1.3s.6 1.3 1.3 1.3h1c-.1 1.5-.2 3-.4 4.6-.1.7.4 1.3 1.1 1.4.7.1 1.3-.4 1.4-1.1.2-1.7.3-3.4.4-4.9H39v4.8c0 .7.6 1.3 1.3 1.3.7 0 1.3-.6 1.3-1.3v-4.8H47c.1 1.6.2 3.2.4 4.9.1.7.7 1.2 1.4 1.1.7-.1 1.2-.7 1.1-1.4-.2-1.6-.3-3.2-.4-4.6h1.1c.7 0 1.3-.6 1.3-1.3s-.6-1.3-1.3-1.3h-1.2c-.1-2.7 0-5.2.3-7.6h1.5c.7 0 1.3-.6 1.3-1.3s-.6-1.3-1.3-1.3h-1.1c.4-2.2 1-4.3 1.9-6.4h9.5c1 0 2-.4 2.7-1l4.5-4c.5-.5.6-1.3.1-1.8-.4-.7-1.3-.7-1.8-.3zm-16.7 4.4h-8.8v-5.8H54c-1.4 1.8-2.6 3.7-3.7 5.8zM19 50.1c0-.9.8-1.7 1.7-1.7h39c.9 0 1.7.8 1.7 1.7 0 .9-.8 1.7-1.7 1.7h-39c-.9.1-1.7-.7-1.7-1.7zm7.4 4.3H39v5.8h-8.8c-1-2.1-2.2-4-3.8-5.8zm4.9 8.4H39v6.4h-6c-.3-2.2-.9-4.2-1.7-6.4zm2.4 16.5c.1-2.7 0-5.2-.3-7.6H39v7.6h-5.3zm13.2 0h-5.3v-7.6h5.6c-.3 2.4-.4 4.9-.3 7.6zm.6-10.1h-5.9v-6.4h7.7c-.9 2.2-1.4 4.2-1.8 6.4z"/></svg>