<?xml version="1.0" encoding="utf-8"?>
<!-- Generator: Adobe Illustrator 25.2.0, SVG Export Plug-In . SVG Version: 6.00 Build 0)  -->
<svg version="1.1" id="Layer_1" xmlns="http://www.w3.org/2000/svg" xmlns:xlink="http://www.w3.org/1999/xlink" x="0px" y="0px"
	 viewBox="0 0 130 71" style="enable-background:new 0 0 130 71;" xml:space="preserve">
<style type="text/css">
	.st0{fill:#DC691D;}
	.st1{fill:#4D007E;}
</style>
<desc>Created with Sketch.</desc>
<circle class="st0" cx="65" cy="34.1" r="32.1"/>
<g>
	<path class="st1" d="M65,67.3c-18.3,0-33.2-14.9-33.2-33.2S46.7,0.9,65,0.9s33.2,14.9,33.2,33.2S83.3,67.3,65,67.3z M65,3.1
		c-17.1,0-31,13.9-31,31s13.9,31,31,31s31-13.9,31-31S82.1,3.1,65,3.1z"/>
	<path class="st1" d="M95.2,46.1c-0.2,0-0.4-0.1-0.6-0.2c-5.8-3.6-9.7-13.7-9.7-25.1c0-3.5,0.4-7,1.1-10.2c0.1-0.6,0.7-1,1.3-0.8
		c0.6,0.1,1,0.7,0.8,1.3c-0.7,3.1-1,6.4-1,9.7c0,10.5,3.6,20.1,8.6,23.3c0.5,0.3,0.7,1,0.4,1.5C95.9,46,95.5,46.1,95.2,46.1z"/>
	<path class="st1" d="M65,67.3c-18.3,0-33.2-14.9-33.2-33.2c0-14.8,10-28,24.2-32c0.2-0.1,0.5-0.1,0.7,0c15.5,6.2,25.9,25.5,25.9,48
		c0,3.7-0.6,7.2-1.1,10.5l0,0.1l-0.4,1.8c-0.1,0.3-0.3,0.6-0.6,0.8C75.9,66,70.5,67.3,65,67.3z M56.3,4.4C43.2,8.2,34,20.4,34,34.1
		c0,17.1,13.9,31,31,31c4.9,0,9.8-1.2,14.2-3.4l0.3-1.3c0.5-3.3,1.1-6.7,1.1-10.2C80.5,28.8,70.8,10.5,56.3,4.4z"/>
	<path class="st1" d="M57.3,60.7c-0.1,0-0.2,0-0.4-0.1c-2.3-0.8-4.5-1.9-6.9-3.4c-0.5-0.3-0.7-1-0.3-1.5c0.3-0.5,1-0.7,1.5-0.3
		c2.2,1.4,4.3,2.5,6.4,3.2c0.6,0.2,0.9,0.8,0.7,1.4C58.1,60.4,57.7,60.7,57.3,60.7z"/>
	<path class="st1" d="M45.1,52.9c-0.3,0-0.6-0.1-0.9-0.4c-0.2-0.3-0.5-0.6-0.8-1c-0.9-1.1-2-2.4-2.6-3.7c-0.3-0.5-0.1-1.2,0.5-1.5
		c0.5-0.3,1.2-0.1,1.5,0.5c0.5,1,1.5,2.2,2.4,3.2c0.3,0.3,0.6,0.7,0.8,1c0.4,0.5,0.3,1.2-0.2,1.6C45.6,52.8,45.3,52.9,45.1,52.9z"/>
	<path class="st1" d="M34.9,46.3c-0.3,0-0.6-0.1-0.8-0.4c-0.4-0.5-0.4-1.2,0.1-1.6c10.3-9.2,29.4-20,61.8-19.8
		c0.6,0,1.1,0.5,1.1,1.1c0,0.6-0.5,1.1-1.1,1.1c0,0,0,0,0,0c-31.7-0.3-50.3,10.3-60.3,19.2C35.4,46.2,35.2,46.3,34.9,46.3z"/>
	<path class="st1" d="M63.9,67.3c-0.2,0-0.4-0.1-0.6-0.2c-0.5-0.3-0.6-1-0.3-1.5c3.6-5.2,5.4-12.1,5.4-19.8
		c0-17.4-11.9-31.5-26.6-31.5c-0.4,0-0.7,0-1.1,0c-0.6,0-1.1-0.5-1.1-1.2c0-0.6,0.5-1.1,1.2-1.1c0.3,0,0.7,0,1,0
		c15.9,0,28.8,15.1,28.8,33.7c0,8.2-2,15.5-5.8,21.1C64.6,67.1,64.3,67.3,63.9,67.3z"/>
</g>
</svg>
